<svg xmlns="http://www.w3.org/2000/svg" viewBox="0 0 1246.05 930.8"><defs><style>.cls-1{isolation:isolate;}.cls-2,.cls-3,.cls-9{fill:#00a4d6;}.cls-10,.cls-12,.cls-2{opacity:0.1;}.cls-3{opacity:0.15;}.cls-4,.cls-6,.cls-9{opacity:0.2;}.cls-5,.cls-6{fill:#18bdf7;}.cls-7{fill:#4a63fe;opacity:0.26;}.cls-8{opacity:0.8;}.cls-10,.cls-11,.cls-12,.cls-24,.cls-49{fill:none;}.cls-10,.cls-11,.cls-12{stroke:#00a4d6;}.cls-10,.cls-11,.cls-12,.cls-49{stroke-miterlimit:10;}.cls-10{stroke-width:5.57px;}.cls-11{stroke-width:1.39px;opacity:0.5;}.cls-12{stroke-width:8.71px;}.cls-13{fill:#0d5691;}.cls-14,.cls-16{fill:#ebecf0;}.cls-15{fill:#d7d9e0;}.cls-15,.cls-16,.cls-17,.cls-23,.cls-26{mix-blend-mode:multiply;}.cls-17{fill:#e2e3e9;}.cls-18{fill:#eb6556;}.cls-19{fill:#54bede;}.cls-20{fill:#f7a307;}.cls-21{fill:#e95848;}.cls-22{fill:#3471a3;}.cls-23{fill:#c8cad4;}.cls-25{fill:#fdd247;}.cls-26{fill:#fde6bc;}.cls-27{fill:#fab08b;}.cls-28{fill:#25679c;}.cls-29{fill:#222b54;}.cls-30{fill:#e74a38;}.cls-31{fill:#fdd963;}.cls-32{fill:#fee491;}.cls-33{fill:#fbbfa1;}.cls-34{fill:#434b6e;}.cls-35{fill:#fee184;}.cls-36{fill:#fdd44e;}.cls-37{fill:#f8ad23;}.cls-38{fill:#8e93a8;}.cls-39{fill:#b6b9c7;}.cls-40{fill:#316fa2;}.cls-41{fill:#626886;}.cls-42{fill:#384065;}.cls-43{fill:#fbc5a9;}.cls-44{fill:#fff;}.cls-45{fill:#f8af28;}.cls-46{fill:#6ec8e3;}.cls-47{fill:#454d6f;}.cls-48{fill:#ec7264;}.cls-49{stroke:#535a7a;stroke-linecap:round;stroke-width:2.36px;}</style></defs><title>Inicio</title><g class="cls-1"><g id="Layer_2" data-name="Layer 2"><g id="Layer_1-2" data-name="Layer 1"><path class="cls-2" d="M1246,69.05S1060-97.49,866.39,86.7C651.62,291,769.53,651.79,589.51,662s-244-38.48-359.21,33.47C96.58,779,125.83,930.8,125.83,930.8H1246Z"/><path class="cls-3" d="M1246.05,589s-78.79-89.19-199.37-58.43C865.36,576.84,914.68,731.15,781,762.72s-515.38-35.28-645.12,0S0,930.8,0,930.8H1246Z"/><g class="cls-4"><path class="cls-5" d="M365.62,470.14a45,45,0,1,0,10.12,39,44.28,44.28,0,0,0,1-9.42A44.84,44.84,0,0,0,365.62,470.14Zm2.63,37.44a37.34,37.34,0,1,1,.83-7.83A37.54,37.54,0,0,1,368.25,507.58Z"/></g><path class="cls-6" d="M375.74,509.17a45.14,45.14,0,0,1-24,30.91l-3.42-6.83a37.54,37.54,0,0,0,19.9-25.67Z"/><path class="cls-7" d="M365.62,470.14l-5.78,5A37.38,37.38,0,0,0,305,473.53l-5.47-5.37a45,45,0,0,1,66.12,2Z"/><g class="cls-8"><g class="cls-4"><path class="cls-5" d="M629.62,87.72a30,30,0,1,0,6.73,26,29.45,29.45,0,0,0,.67-6.27A29.87,29.87,0,0,0,629.62,87.72Zm1.75,24.91a24.86,24.86,0,1,1,.55-5.21A25,25,0,0,1,631.37,112.63Z"/></g><path class="cls-6" d="M636.35,113.69a30,30,0,0,1-16,20.57l-2.27-4.55a25,25,0,0,0,13.24-17.08Z"/><path class="cls-7" d="M629.62,87.72l-3.84,3.35A24.86,24.86,0,0,0,589.27,90l-3.64-3.56a30,30,0,0,1,44,1.31Z"/></g><path class="cls-9" d="M295.17,616.81l4.57-3.4a28.34,28.34,0,0,0-8.72-8.72l-3.4,4.57a22.28,22.28,0,0,0-6.36-2.64l.82-5.64a27.5,27.5,0,0,0-12.33,0l.83,5.64a22,22,0,0,0-6.36,2.64l-3.41-4.57a28.31,28.31,0,0,0-8.71,8.72l4.56,3.4a22.42,22.42,0,0,0-2.63,6.36l-5.65-.83a27.93,27.93,0,0,0,0,12.34l5.65-.83a22.42,22.42,0,0,0,2.63,6.36l-4.56,3.4a28.31,28.31,0,0,0,8.71,8.72l3.41-4.57a22,22,0,0,0,6.36,2.64l-.83,5.64a27.5,27.5,0,0,0,12.33,0l-.82-5.64a22.28,22.28,0,0,0,6.36-2.64l3.4,4.57a28.34,28.34,0,0,0,8.72-8.72l-4.57-3.4a22.45,22.45,0,0,0,2.64-6.36l5.64.83a27.54,27.54,0,0,0,0-12.34l-5.64.83A22.45,22.45,0,0,0,295.17,616.81Zm-19.25,26.68a15,15,0,1,1,15-15A15,15,0,0,1,275.92,643.49Z"/><path class="cls-3" d="M1170.44,188.11l6.84-5.1a42.34,42.34,0,0,0-13.07-13.07l-5.1,6.85a33.52,33.52,0,0,0-9.53-4l1.24-8.46a41.66,41.66,0,0,0-18.5,0l1.24,8.46a33.52,33.52,0,0,0-9.53,4l-5.1-6.85A42.34,42.34,0,0,0,1105.86,183l6.84,5.1a33.79,33.79,0,0,0-4,9.53l-8.46-1.23a41.61,41.61,0,0,0,0,18.49l8.46-1.24a33.79,33.79,0,0,0,4,9.53l-6.84,5.1a42.24,42.24,0,0,0,13.07,13.07l5.1-6.84a33.79,33.79,0,0,0,9.53,3.95l-1.24,8.46a41.66,41.66,0,0,0,18.5,0l-1.24-8.46a33.79,33.79,0,0,0,9.53-3.95l5.1,6.84a42.24,42.24,0,0,0,13.07-13.07l-6.84-5.1a33.79,33.79,0,0,0,4-9.53l8.46,1.24a41.61,41.61,0,0,0,0-18.49l-8.46,1.23A33.79,33.79,0,0,0,1170.44,188.11Zm-28.87,40A22.46,22.46,0,1,1,1164,205.65,22.45,22.45,0,0,1,1141.57,228.11Z"/><path class="cls-10" d="M524.94,53.73a11.61,11.61,0,1,1-11.61-11.61A11.61,11.61,0,0,1,524.94,53.73Z"/><path class="cls-11" d="M974.4,95.85a11.61,11.61,0,1,1-11.61-11.6A11.61,11.61,0,0,1,974.4,95.85Z"/><circle class="cls-12" cx="666.41" cy="181.48" r="18.15"/><path class="cls-12" d="M1202,452.37a18.15,18.15,0,1,1-18.15-18.15A18.15,18.15,0,0,1,1202,452.37Z"/><path class="cls-13" d="M997.17,601.73H601.1V723.09H997.17a47.74,47.74,0,0,0,47.74-47.75V649.47A47.73,47.73,0,0,0,997.17,601.73Z"/><path class="cls-14" d="M460.17,612.55H855.4a14,14,0,0,1,14,14v74.54a14,14,0,0,1-14,14H460.17a0,0,0,0,1,0,0V612.55A0,0,0,0,1,460.17,612.55Z"/><path class="cls-15" d="M845.53,612.55H460.17v28.22H869.4v-4.35A23.87,23.87,0,0,0,845.53,612.55Z"/><path class="cls-13" d="M838.59,601.73H442.53v18.76H838.59a29,29,0,0,1,29,29v25.87a29,29,0,0,1-29,29H442.53v18.76H838.59a47.74,47.74,0,0,0,47.74-47.75V649.47A47.73,47.73,0,0,0,838.59,601.73Z"/><rect class="cls-16" x="485.57" y="655.56" width="176.39" height="1.71"/><rect class="cls-16" x="580.11" y="673.2" width="176.39" height="1.71"/><rect class="cls-16" x="479.92" y="691.54" width="176.39" height="1.71"/><rect class="cls-16" x="717.52" y="655.56" width="119.36" height="1.71"/><path class="cls-17" d="M838.59,601.73H442.53v18.76H838.59a29,29,0,0,1,29,29v25.87a29,29,0,0,1-29,29H442.53v18.76H838.59a47.74,47.74,0,0,0,47.74-47.75V649.47A47.73,47.73,0,0,0,838.59,601.73Z"/><path class="cls-18" d="M555.61,644.89h47.08v75.88l-21.75-17.2-25.33,17.87S555.93,645.22,555.61,644.89Z"/><path class="cls-19" d="M837.56,411.22H538.79v91.55H837.56a36,36,0,0,0,36-36V447.24A36,36,0,0,0,837.56,411.22Z"/><path class="cls-14" d="M432.47,419.38H730.62a10.56,10.56,0,0,1,10.56,10.56v56.23a10.56,10.56,0,0,1-10.56,10.56H432.47a0,0,0,0,1,0,0V419.38A0,0,0,0,1,432.47,419.38Z"/><path class="cls-15" d="M723.17,419.38H432.47v21.3H741.18v-3.29A18,18,0,0,0,723.17,419.38Z"/><path class="cls-19" d="M717.94,411.22H419.16v14.15H717.94a21.89,21.89,0,0,1,21.86,21.87v19.52a21.88,21.88,0,0,1-21.86,21.86H419.16v14.15H717.94a36,36,0,0,0,36-36V447.24A36,36,0,0,0,717.94,411.22Z"/><rect class="cls-16" x="451.63" y="451.83" width="133.06" height="1.29"/><rect class="cls-16" x="522.95" y="465.14" width="133.06" height="1.29"/><rect class="cls-16" x="447.37" y="478.98" width="133.06" height="1.29"/><rect class="cls-16" x="626.61" y="451.83" width="90.04" height="1.29"/><path class="cls-17" d="M717.94,411.22H419.16v14.15H717.94a21.89,21.89,0,0,1,21.86,21.87v19.52a21.88,21.88,0,0,1-21.86,21.86H419.16v14.15H717.94a36,36,0,0,0,36-36V447.24A36,36,0,0,0,717.94,411.22Z"/><path class="cls-20" d="M857.64,315.27H545v95.78h312.6a37.68,37.68,0,0,0,37.68-37.68V353A37.68,37.68,0,0,0,857.64,315.27Z"/><path class="cls-14" d="M493.49,323.8H745.75a11,11,0,0,1,11,11v58.83a11,11,0,0,1-11,11H493.49a0,0,0,0,1,0,0V323.8A0,0,0,0,1,493.49,323.8Z"/><path class="cls-15" d="M738,323.8H493.49v22.28h263.3v-3.44A18.84,18.84,0,0,0,738,323.8Z"/><path class="cls-20" d="M732.48,315.27H479.57v14.8H732.48A22.91,22.91,0,0,1,755.36,353v20.42a22.91,22.91,0,0,1-22.88,22.87H479.57v14.81H732.48a37.68,37.68,0,0,0,37.68-37.68V353A37.68,37.68,0,0,0,732.48,315.27Z"/><rect class="cls-16" x="513.54" y="357.75" width="79.54" height="1.35"/><rect class="cls-16" x="528.48" y="371.67" width="139.22" height="1.35"/><rect class="cls-16" x="509.08" y="386.15" width="79.54" height="1.35"/><rect class="cls-16" x="636.93" y="357.75" width="94.2" height="1.35"/><path class="cls-17" d="M732.48,315.27H479.57v14.8H732.48A22.91,22.91,0,0,1,755.36,353v20.42a22.91,22.91,0,0,1-22.88,22.87H479.57v14.81H732.48a37.68,37.68,0,0,0,37.68-37.68V353A37.68,37.68,0,0,0,732.48,315.27Z"/><path class="cls-21" d="M658.67,356.54h48.85v79.38l-22.57-18-26.28,18.69S659,356.89,658.67,356.54Z"/><polygon class="cls-22" points="583.88 238.65 584.11 247.29 754.63 294.63 917.38 247.06 917.38 238.65 754.63 188.32 583.88 238.65"/><polygon class="cls-13" points="754.63 294.63 917.38 247.06 917.38 238.65 754.63 188.32 754.63 294.63"/><polygon class="cls-13" points="583.88 247.18 754.63 303.15 917.38 247.18 754.63 196.85 583.88 247.18"/><polygon class="cls-23" points="583.88 247.18 754.63 303.15 917.38 247.18 754.63 196.85 583.88 247.18"/><path class="cls-13" d="M826,256.53s-2.83-5.18-24-13.65c-29.57-11.82-69.92-11.86-99.58,0-21.16,8.46-24,13.64-24,13.64s-5.17,19.22-4.7,35.69,1.41,23,1.41,23,23.52.94,46.57,8.46c15.1,4.93,28.95,13.71,30.43,14.67v.09l.07-.05.07.05v-.09c1.48-1,15.33-9.74,30.43-14.67,23-7.52,46.57-8.46,46.57-8.46s.94-6.59,1.41-23C831.3,270.58,826,256.53,826,256.53Z"/><path class="cls-24" d="M638,216.54c-4.5.32-6.95,4.26-8.28,8.59l16-4.73A8.64,8.64,0,0,0,638,216.54Z"/><path class="cls-25" d="M637.78,213.13c-5.79.42-9.94,5.06-11.85,13.12-.19.82-.37,1.65-.51,2.54-1.67,10.09-1.62,20.42-1.57,29.53h0c0,7.16.29,13.71.78,20l3.4-.26c-.46-5.95-.71-12.12-.76-18.82,0-.32,0-.63,0-1,0-9-.1-19.16,1.52-29a33.1,33.1,0,0,1,1-4.21c1.33-4.33,3.78-8.27,8.28-8.59a8.64,8.64,0,0,1,7.77,3.86l3.42-1A12.23,12.23,0,0,0,637.78,213.13Z"/><path class="cls-25" d="M638.31,313a98,98,0,0,0-7.41-28.57l-3.5-.21V284l-1.25.08-1.24-.08v.15l-3.51.21A98.39,98.39,0,0,0,614,313a167.75,167.75,0,0,0-.7,28.93H639A167.22,167.22,0,0,0,638.31,313Z"/><path class="cls-25" d="M636,281.84c0,4.72-4.42,8.55-9.88,8.55s-9.88-3.83-9.88-8.55,4.43-8.56,9.88-8.56S636,277.11,636,281.84Z"/><path class="cls-26" d="M629.3,273.74a7.75,7.75,0,0,1,2,5.1c0,4.72-4.42,8.56-9.88,8.56a11.21,11.21,0,0,1-3.15-.46,10.41,10.41,0,0,0,7.91,3.45c5.46,0,9.88-3.83,9.88-8.55C636,278.07,633.21,274.88,629.3,273.74Z"/><path class="cls-26" d="M632.15,287.38a7.73,7.73,0,0,0-.75-.4,135.3,135.3,0,0,1,4.88,37.23c0,4.51.72,10.72-2.28,11.69-.79.26-2.68-2-2.78-4.22l-.54-11.27a61.92,61.92,0,0,1-1.27,11.91,8.46,8.46,0,0,1-1.14,3.15,2.83,2.83,0,0,1-5.21-.51,9.53,9.53,0,0,1-.59-3.18l-1.17-17.69Q621,323.2,620,332.25c-.29,2.49-.9,5.08-3.49,6.06a4.64,4.64,0,0,1-3.4-.13c.09,2.37.21,3.72.21,3.72H639a167.22,167.22,0,0,0-.71-28.93A102.65,102.65,0,0,0,632.15,287.38Z"/><path class="cls-27" d="M483.86,389.49a72.32,72.32,0,0,1-2,12.22,34.67,34.67,0,0,0,8.93-.08,2.81,2.81,0,0,0,1.21-.37,2.88,2.88,0,0,0,.91-1.55,40.49,40.49,0,0,0,1.8-9.82,30,30,0,0,1-10.88-.41"/><path class="cls-27" d="M525.83,389a51.87,51.87,0,0,1,2.69,9.72l9.52-3.18a.69.69,0,0,0,.33-.19.67.67,0,0,0,0-.57c-.93-3-2-6-3.09-8.91a.49.49,0,0,0-.17-.25.39.39,0,0,0-.3,0,36.5,36.5,0,0,0-8.95,3.26"/><path class="cls-13" d="M528.81,290.86c-.74.25-39.89,24.72-42.34,33.53s-7.1,67.79-7.1,67.79,5.63,2.2,10.28,2.2H496s7.1-39.89,9.3-48.94,5.63-13.71,8.57-16.89S556,299.92,556,299.92l3.68-10.53Z"/><path class="cls-28" d="M542.76,289.64S521.7,303.49,511.91,316s-7.33,12.58-5.62,20.41,17.87,57,17.87,57a30.44,30.44,0,0,0,8.81-1c4.16-1.23,5.14-2.45,5.14-2.45s-3.18-27.16-4.41-37.44-3.42-21.05-3.42-21.05,24.51-6.94,34.55-15.75,2.11-25.88,2.11-25.88Z"/><path class="cls-29" d="M538.32,393.32s2.67,5.23,2.4,7.44-11.67,9-15.34,9.72-11.75,1.47-12.66-.64,7.25-6.15,9.54-8.26,5.29-5.17,5.29-5.17a10,10,0,0,0,6,.35A6.42,6.42,0,0,0,538.32,393.32Z"/><path class="cls-29" d="M481.51,398.23s1.09,1.76,4.76,1.94c4.94.23,7.27-1.39,7.27-1.39s.27,6.89-1.47,8.26-11.91,4.42-23.91,4.07c-7.6-.23-6.56-2-5-3.24S481.51,398.23,481.51,398.23Z"/><path class="cls-30" d="M572.35,234.3s-5.47-7.41-11.64-10.41-11.11-4.76-11.11-4.76-12.35,3.18-15.88,4.76-13.58,6.88-16.05,9.71-4.41,6.52-2.82,16.4,8.11,25.75,9.52,31.22A43.11,43.11,0,0,1,525.61,292s12.35-.18,23.81.18a101.69,101.69,0,0,1,21.17,3s-1.77-26.29-.53-35.11S572.35,234.3,572.35,234.3Z"/><polygon class="cls-31" points="512.38 242.41 518.55 288.98 551.89 276.81 545.54 230.77 512.38 242.41"/><path class="cls-27" d="M528.92,180.33a16.24,16.24,0,0,0-5.54,10.45,34.63,34.63,0,0,0,.82,12,25.06,25.06,0,0,0,3.71,9.59c2,2.81,5.28,4.92,8.73,4.76,3-.15,5.73-2,7.8-4.17,4.87-5.19,6.92-12.68,6.24-19.76a16.35,16.35,0,0,0-.8-3.92,13.27,13.27,0,0,0-5.69-6.7,20.72,20.72,0,0,0-8.48-2.71c-2.73-.31-5.64-.19-8,1.21"/><path class="cls-27" d="M535.93,214.71c.51,1.93,1,3.87,1.54,5.8a2.34,2.34,0,0,1,.11,1,2.51,2.51,0,0,1-.64,1.08,14.67,14.67,0,0,0-1.48,2.18c-.77,1.41-1.19,3.42.06,4.42a3.31,3.31,0,0,0,1.38.58,11.72,11.72,0,0,0,8.49-1.69,21.11,21.11,0,0,0,6.19-6.26,2.09,2.09,0,0,0,.4-.87,2,2,0,0,0-.31-1.12,83.29,83.29,0,0,1-5-12.73,32.55,32.55,0,0,0-10.26,7.8"/><path class="cls-29" d="M521.69,184.39a3.52,3.52,0,0,0,.3,2.35,3.38,3.38,0,0,0,1.07,1.09c2,1.36,4.48,1.54,6.87,1.56a75.31,75.31,0,0,0,15.84-1.56c-.73,6.61,1.71,12,3.83,16.66,2.82-4.43,6.35-7.37,6.7-12.61a6.08,6.08,0,0,0-.6-3.63,3.1,3.1,0,0,0-2.76-1.64c.52,0,.43-2.89.37-3.22-.76-4.23-4.88-4.79-7.78-2.07.09-3.31-2.59-6.28-5.77-7.21a12.77,12.77,0,0,0-9.57,1.48C527,177.38,522.32,180.48,521.69,184.39Z"/><path class="cls-27" d="M551.59,197.83c0-.09,0-.18,0-.28a2.32,2.32,0,0,0-2.43-2,4.18,4.18,0,0,0-2.35,1.17c-.66.59-1.22,1.28-1.88,1.88l.58,1.18a2.87,2.87,0,0,0,1.7,1.83,2.72,2.72,0,0,0,1.17-.05C550.06,201.2,551.79,199.7,551.59,197.83Z"/><path class="cls-27" d="M539.8,273.21a183.2,183.2,0,0,1-18.55-2.32c-1.55-.28-3.36-.79-3.88-2.27a3,3,0,0,1,1.22-3.25,7.44,7.44,0,0,1,3.47-1.2,31.73,31.73,0,0,1,8.26-.14L528,261.46a1.37,1.37,0,0,1-.47-.87.91.91,0,0,1,.78-.8,2.24,2.24,0,0,1,1.19.2c3.39,1.35,5.65,4.75,9.06,6.07.54.22,1.16.42,1.41.95a2,2,0,0,1,.1,1l-.45,5.6"/><path class="cls-18" d="M567.94,231.13c-8.11-.89-7.76,12-7.94,18.52s3.3,17.28,3.12,20.46c-1.06,0-26-5.65-26-5.65s-2.11,10.41-1.23,11.12,29.75,13.93,34.87,11.46,7.38-12.5,8.29-18.34C580.94,256.17,576.06,232,567.94,231.13Z"/><polygon class="cls-32" points="512.38 242.41 493.15 230.77 500.38 279.28 518.55 288.98 512.38 242.41"/><path class="cls-27" d="M500.07,267a5.25,5.25,0,0,1-2,.67.77.77,0,0,1-.4,0,.81.81,0,0,1-.33-.33,12.72,12.72,0,0,1-2.06-6.55,6.63,6.63,0,0,1,1.66-5c.71.73.12,2,.25,3a.42.42,0,0,0,.1.26.4.4,0,0,0,.3.09,4.32,4.32,0,0,0,2.28-1.06,2.15,2.15,0,0,1,2.37-.28,2,2,0,0,1,.49.59,7.62,7.62,0,0,1,1,5.21,3.27,3.27,0,0,1-.78,1.74,4.07,4.07,0,0,1-1,.68l-2.59,1.38"/><path class="cls-30" d="M514.15,502.48h326.4v100H514.15a39.34,39.34,0,0,1-39.35-39.34V541.83A39.35,39.35,0,0,1,514.15,502.48Z"/><path class="cls-14" d="M619.45,511.39H945.17a11.54,11.54,0,0,1,11.54,11.54v61.43a11.54,11.54,0,0,1-11.54,11.54H619.45a0,0,0,0,1,0,0V511.39A0,0,0,0,1,619.45,511.39Z" transform="translate(1576.15 1107.3) rotate(180)"/><path class="cls-15" d="M639.12,511.39H956.71v23.26H619.45v-3.58A19.67,19.67,0,0,1,639.12,511.39Z"/><path class="cls-30" d="M644.84,502.48h326.4v15.46H644.84A23.91,23.91,0,0,0,621,541.83v21.32A23.91,23.91,0,0,0,644.84,587h326.4v15.45H644.84a39.34,39.34,0,0,1-39.35-39.34V541.83A39.35,39.35,0,0,1,644.84,502.48Z"/><rect class="cls-16" x="790.4" y="546.84" width="145.37" height="1.41" transform="translate(1726.17 1095.09) rotate(180)"/><rect class="cls-16" x="712.48" y="561.38" width="145.37" height="1.41" transform="translate(1570.34 1124.16) rotate(180)"/><rect class="cls-16" x="795.05" y="576.5" width="145.37" height="1.41" transform="translate(1735.48 1154.4) rotate(180)"/><rect class="cls-16" x="646.24" y="546.84" width="98.37" height="1.41" transform="translate(1390.85 1095.09) rotate(180)"/><path class="cls-17" d="M644.84,502.48h326.4v15.46H644.84A23.91,23.91,0,0,0,621,541.83v21.32A23.91,23.91,0,0,0,644.84,587h326.4v15.45H644.84a39.34,39.34,0,0,1-39.35-39.34V541.83A39.35,39.35,0,0,1,644.84,502.48Z"/><path class="cls-19" d="M889.58,547.05h42.83v75.88l-19.79-17.2-23,17.87S889.88,547.38,889.58,547.05Z"/><path class="cls-33" d="M963.77,461.67c3.4.2,6.41,2.18,9.7,3,2,.53,4.19.65,6,1.61.6.31,1.22.95.94,1.56a1.31,1.31,0,0,1-.5.49,7.89,7.89,0,0,1-4.62,1.12,23.49,23.49,0,0,1-4.75-.81,29.69,29.69,0,0,1-5.49-1.73,3.57,3.57,0,0,1-1.44-1,2.75,2.75,0,0,1-.33-2.31,8.47,8.47,0,0,1,1-2.16"/><path class="cls-33" d="M983.34,556.28a35.44,35.44,0,0,0,.32,5.54,6.94,6.94,0,0,0,.68,2.45,7.19,7.19,0,0,0,1.71,1.9,65.22,65.22,0,0,0,9.11,6.66,18.13,18.13,0,0,0,3.49,1.76.93.93,0,0,0,.59,0c.44-.17.36-.81.18-1.25-2.33-5.74-7.1-10.69-7.4-16.88a2.62,2.62,0,0,0-.33-1.47,2.41,2.41,0,0,0-2.12-.6c-2.11.09-4.32.22-6.09,1.37"/><path class="cls-33" d="M1021.69,553.61a66.43,66.43,0,0,0,6.12,11.81,2.32,2.32,0,0,0,.83.87,2.1,2.1,0,0,0,1.11.13,33.23,33.23,0,0,0,10.81-2.47c2.19-.9,4.39-2.14,5.6-4.18.34-.58.54-1.43,0-1.83a1.55,1.55,0,0,0-.7-.21c-2.16-.25-4.35.06-6.53,0a8.48,8.48,0,0,1-6-2.21c-1.42-1.51-1.85-3.69-3-5.45l-8.64,3.54"/><path class="cls-29" d="M923.73,467.9s70.91.36,79.38,6.36,31.39,77.26,31.39,77.26l-14.81,6.35s-20.82-43.75-27.87-55.74-28.93-9.88-36.34-10.24-32.81-.7-32.81-.7Z"/><path class="cls-34" d="M915.79,470s60.5,0,69.32,4.59,11.29,18.7,11.65,32.81-.71,51.86-.71,51.86h-12.7s-7.06-37.75-9.17-47.28-2.12-12.34-2.12-12.34-45.16,9.52-59.27,6S892,492.6,892,481.31s7.76-14.82,7.76-14.82Z"/><path class="cls-29" d="M930.54,346.81c-3.56-2.53-8.7-2.11-12.29.36s-5.76,6.67-6.55,11c-.51,2.8-.52,5.71-1.47,8.38-1.81,5.07-6.59,8.34-10.12,12.39-4.08,4.69-6.62,11-5.63,17.17,1,6.46,5.73,11.76,10.9,15.76,6.82,5.27,15,9,23.6,9.53,4.94.28,10.14-.6,14.07-3.61s6.21-8.46,4.51-13.1c-1.1-3-3.61-5.26-5-8.12-1.89-3.85-1.59-8.44-.45-12.57s3-8,4.36-12.09a42.79,42.79,0,0,0,1.94-10.08c.24-3.39,0-7-2-9.8a12,12,0,0,0-7.51-4.39,35.24,35.24,0,0,0-8.89-.24"/><path class="cls-35" d="M935.76,398.17a29.91,29.91,0,0,1,6.35,16.35c.68,9.87.79,21.05,7.58,31.86s16.54,15.06,17.45,15.76-4.59,3.78-4.59,3.78-9.23-.95-14.89-3.78-10.88-2.35-12.69-10.82-1.13-44.45-1.13-44.45Z"/><path class="cls-33" d="M942.52,457.11a60.42,60.42,0,0,1,23.72,10.61c.16.12.34.27.35.47s-.29.47-.55.57a13.29,13.29,0,0,1-4.48.65,32.1,32.1,0,0,1-7.33-.55,39.61,39.61,0,0,1-8.14-3.05c-1.7-.78-3.49-1.64-4.51-3.21s-.84-4.07.85-4.89"/><path class="cls-36" d="M914.91,390.82,919,391s10.23,1.94,12.34,4.23,5.82,11.64,7.24,20.46-.53,43-1.06,45.69-1.77,6.7-1.77,6.7-22.05,4.94-23.63,4.41,3.52-37.75,3.7-49.74S914.91,391.7,914.91,390.82Z"/><path class="cls-37" d="M929.84,393.58s6.47,7.88,7.47,26.87c.63,12-2.64,34.23-2.64,37.75a86.05,86.05,0,0,1-.89,9.53l7.41.17s4.23-33.33,3.35-44.27-3-20.29-6.52-24.34A21.78,21.78,0,0,0,929.84,393.58Z"/><path class="cls-33" d="M927.34,350.47a76.42,76.42,0,0,0-4.81,12,25.51,25.51,0,0,0-.51,12.83,15.44,15.44,0,0,0,7.53,10.08c3.85,2,8.91,1.71,12.17-1.14a16.48,16.48,0,0,0,3.72-5.42c2.87-6,4.7-12.86,3-19.28a11.56,11.56,0,0,0-2.82-5.34,12.19,12.19,0,0,0-3.59-2.33,22.33,22.33,0,0,0-15.19-1.09"/><path class="cls-33" d="M934.7,384.84c-.91,1.44-4.8,6.41-4.86,7.57a22.13,22.13,0,0,1,1.65,4c.56,1.55,1.22,3.25.71,4.82s-2.48,2-4.09,1.64a5.08,5.08,0,0,1-1.64-.79,32.06,32.06,0,0,1-8.92-8.91,1.85,1.85,0,0,1-.11-2.41c2.44-4.62,5.56-10.3,5.47-15.52,3.9,2.22,8.43,6.2,11.88,9.08"/><path class="cls-29" d="M929.4,346.89a20.17,20.17,0,0,1-.17,9.49,14.23,14.23,0,0,1-3,6,9.06,9.06,0,0,1-5.86,3.09l.78-6.86a25.73,25.73,0,0,1,.43-2.77,12.51,12.51,0,0,1,7.88-8.83"/><path class="cls-29" d="M928.94,346.77c-.47,2.35,1.54,4.84,3,6.72,2.27,2.86,4.75,4.38,7.89,6.22,2.24,1.32,4.67,2.36,6.58,4.11s3.2,4.51,2.34,7c1.56-5.88,3.07-12.35.48-17.86a14.28,14.28,0,0,0-8.81-7.4,16.32,16.32,0,0,0-11.38,1.07"/><path class="cls-33" d="M925.33,365.17l-.86-.68-.85-.66c-1.45-1.16-4-2.67-5.32-.42a3.29,3.29,0,0,0,1.45,4.42,5.39,5.39,0,0,0,5.88-.56"/><path class="cls-37" d="M900.27,395.94a25.07,25.07,0,0,1,7.76-4.77,31.77,31.77,0,0,1,8.29-1.76,67.42,67.42,0,0,1,6.53,25.93c.35,13.93-6,68.44-6,68.44s-12,.35-19.05-.53-9.35-1.23-9.35-1.23,5.12-15.53,6.53-25.58,5.46-41.63,5.46-47.8S900.27,395.94,900.27,395.94Z"/><path class="cls-35" d="M945.37,453.91a15.36,15.36,0,0,0-1.89,6.59c0,3.29.24,6.82.24,6.82a219.88,219.88,0,0,1-36.22-3.77c-14.35-2.82-14.58-2.35-16.23-9.64s.94-38.1,3.06-47.27,6.11-11.06,8.23-10.82,7.76,4,8,16.7-3.77,36.69-3.77,36.69,16.47,1.41,24.94,2.35A98.81,98.81,0,0,1,945.37,453.91Z"/><path class="cls-13" d="M983.66,561.82a12.57,12.57,0,0,0-1.13,4c-.47,2.94.7,3.88.7,3.88s18.82,15.53,21.87,13.64-2-7.76-3.76-9.4S998.4,571,998.4,571a37.33,37.33,0,0,1-9.17-4.24A19.83,19.83,0,0,1,983.66,561.82Z"/><path class="cls-13" d="M1025.92,563.28s1.53,7.87,6.58,7.29,17.53-6.94,20-8.94,3.52-3.41,1.52-4.47-9.4-.23-9.4-.23a22.3,22.3,0,0,1-8.59,4.82A32.62,32.62,0,0,1,1025.92,563.28Z"/><rect class="cls-38" x="943.84" y="468.61" width="32.28" height="2.82"/><polygon class="cls-38" points="974.88 469.43 990.76 440.74 994.52 440.74 977.94 471.43 972.06 471.43 974.88 469.43"/><polygon class="cls-39" points="994.52 440.74 1023.92 442.27 1007.93 472.02 977.24 471.43 994.52 440.74"/><path class="cls-29" d="M658.37,497.78c-.37-3.75,2-7.15,3.4-10.65,2.23-5.52,2.25-12.21-1-17.23-6.24-9.74-15.09-13.47-24.65-12.73-9.79.75-17.14,10.1-18.93,19.19-.84,4.22-1,8.71.47,12.74,1,2.62,2.65,5,3.06,7.77.63,4.24-1.81,8.24-3.75,12.07s-3.41,8.62-1,12.21c1.55,2.36,4.37,3.51,7.07,4.35a63.8,63.8,0,0,0,15.68,2.78c6.47.34,13.46-.51,18.36-4.75a16.36,16.36,0,0,0,4.36-18C660.39,502.94,658.65,500.56,658.37,497.78Z"/><path class="cls-20" d="M645.14,509.77s23.52,0,29.4,9.64,9.64,25.87,8,36-8.46,15.05-15,18.34A48.17,48.17,0,0,1,654.55,578L656,562.92s8.44-6.68,10.58-9.64c3.06-4.23.94-12.35-.7-16.23-2.59-6.11-9.88-10.11-9.88-10.11Z"/><path class="cls-20" d="M633.47,509.77s-23.52,0-29.4,9.64-9.64,25.87-8,36,8.47,15.05,15,18.34A48.29,48.29,0,0,0,624.07,578l-1.42-15.05s-8.44-6.68-10.58-9.64c-3.06-4.23-.93-12.35.71-16.23,2.58-6.11,9.87-10.11,9.87-10.11Z"/><path class="cls-27" d="M625.1,469.34c-1.64,5.22-1.15,10.85-.3,16.25.67,4.24,1.59,8.55,3.88,12.19s6.21,6.49,10.5,6.44c5.94-.07,10.46-5.44,12.85-10.87a39.55,39.55,0,0,0,3.13-20c-.2-2-.61-4-2-5.45a8.75,8.75,0,0,0-4.62-2.19A31.72,31.72,0,0,0,624.8,470"/><path class="cls-27" d="M632.22,497.48a42.74,42.74,0,0,1,.17,8.61,14.26,14.26,0,0,1-3.22,7.85,2.11,2.11,0,0,0-.63,1c-.08.65.5,1.17,1,1.53a16.54,16.54,0,0,0,19.85-1.59,1.74,1.74,0,0,0,.64-1c.09-.63-.47-1.14-.91-1.61-1.63-1.72-2.07-4.22-2.37-6.58-.31-2.55-.54-5.12-.68-7.69a39.17,39.17,0,0,1-12.4.86"/><path class="cls-29" d="M621.05,482.08c5.12,3.39,12.16,3.06,17.5,0s9.09-8.38,11.16-14.16a29.56,29.56,0,0,0,6.52,19.37,67,67,0,0,0,.91-6.93,25.62,25.62,0,0,0-.24-7.37,11.59,11.59,0,0,0-3.47-6.4c-2.91-2.56-7.08-3-11-3.06-4.2-.09-8.51.1-12.4,1.7a17.87,17.87,0,0,0-4.11,2.37,10.47,10.47,0,0,0-2.44,2.53,11.28,11.28,0,0,0-1.33,3.16,27.31,27.31,0,0,0-1,8.67"/><path class="cls-25" d="M664,529.58c-2.12-5.11-13.78-19-13.78-19s-.68,6.12-10.56,6.65H639c-9.87-.53-10.05-6.88-10.05-6.88s-12.17,14.11-14.29,19.22,3.88,45.51,3.88,45.51l19.69,1.27,0,.14,1.08-.06,1.08.06,0-.14,19.69-1.27S666.1,534.7,664,529.58Z"/><path class="cls-39" d="M614.79,547.63h49a3,3,0,0,1,3,3V582a0,0,0,0,1,0,0h-55a0,0,0,0,1,0,0V550.63A3,3,0,0,1,614.79,547.63Z"/><path class="cls-29" d="M609.24,594.67s-5.24-.45-6,3.57,3.12,5.69,4.46,5.69,3.92-.16,3.92-.16-.11,2.09-4.36,2.54-10.16,1.08-13.85,1.42-9.71-1.9-10.94-6.25,2.58-7.17,7-6.81C595.07,595.11,609.24,594.67,609.24,594.67Z"/><path class="cls-27" d="M658,591.33a39.88,39.88,0,0,0,15.17,3.37,18.68,18.68,0,0,1,4.49.39,4.73,4.73,0,0,1,3.34,2.79c.7,2.09-.86,4.41-2.87,5.32s-4.33.78-6.54.62c-5.35-.38-10.91-.88-15.51-3.63a1.63,1.63,0,0,1-.65-.57,1.79,1.79,0,0,1,.09-1.41l2.54-7"/><path class="cls-27" d="M620.66,591.33a39.84,39.84,0,0,1-15.17,3.37,18.72,18.72,0,0,0-4.49.39,4.72,4.72,0,0,0-3.33,2.79c-.71,2.09.85,4.41,2.87,5.32s4.32.78,6.53.62c5.35-.38,10.91-.88,15.52-3.63a1.61,1.61,0,0,0,.64-.57,1.79,1.79,0,0,0-.09-1.41c-.85-2.34-1.69-4.67-2.53-7"/><path class="cls-13" d="M682.51,567.88c12-1.12,18.23.22,18.53,7.14.45,10.49-13.17,14.74-40,19.2s-44.43,8.93-44.43,8.93l-2.23-10.72S670.45,569,682.51,567.88Z"/><path class="cls-40" d="M596.1,567.88c-12.05-1.12-18.23.22-18.53,7.14-.44,10.49,13.18,14.74,40,19.2S662,603.15,662,603.15l2.23-10.72S608.16,569,596.1,567.88Z"/><path class="cls-29" d="M671.86,594.67s5.25-.45,6,3.57-3.13,5.69-4.47,5.69-3.91-.16-3.91-.16.11,2.09,4.35,2.54,10.17,1.08,13.85,1.42,9.71-1.9,10.94-6.25-2.57-7.17-7-6.81C686,595.11,671.86,594.67,671.86,594.67Z"/><path class="cls-41" d="M478.08,762.43s-2.29,10.33.23,12.62,24.95,1.61,29.76,1.15,6.88-.46,6-2.53-23.11-9.86-24.26-11.92a43.15,43.15,0,0,1-2.06-4.36Z"/><path class="cls-41" d="M411.56,759.22s-7.56,14.68-6.88,17.89,15.37,4.82,20.19,4.13,6-.68,3.67-5-8-10.32-8-13.77a10.88,10.88,0,0,1,.92-5Z"/><path class="cls-29" d="M467.88,605.32s11.35,61.93,16.51,97.36S492,762.21,492,762.21l-16.86,2.4s-18.58-81.88-25.8-103.56-8.61-29.93-8.61-29.93l2.07-31Z"/><path class="cls-42" d="M450,607.72S448.61,672.06,437.6,712s-16.17,50.92-16.17,50.92l-13.08-1.37s7.57-88.43,8.6-117,0-37.85,0-37.85Z"/><path class="cls-18" d="M433.47,508.69s-11.35-5.33-26.26,3.84c-12.8,7.88-15.66,21.62-17.21,37.62s1.84,36.47,8.55,44.21,18.4,6.54,22.19,5.34,13.76-32.17,15.83-48S433.47,508.69,433.47,508.69Z"/><path class="cls-19" d="M404.22,520.91s6.43-9.64,16.29-13.54,26.15-2.06,29.13-.68,6.42,4.81,9.4,15.36c2.47,8.74,11,57.58,11.47,73.63s-.23,16.52-.23,16.52-19.49,2.06-35.78,1.6-21.79-1.6-21.79-1.6,3.21-55.05,1.84-69A37.28,37.28,0,0,0,404.22,520.91Z"/><path class="cls-43" d="M430.8,485.4q-1.82,10-3.64,20a4.56,4.56,0,0,0-.08,1.64,4,4,0,0,0,.93,1.61A35.67,35.67,0,0,0,443.5,519.5c1.71.61,3.72,1.06,5.24.08,1.81-1.15,2-3.75,1.42-5.8-.91-3-3.14-5.5-4.5-8.38a15.77,15.77,0,0,1-1.26-9.5,7.76,7.76,0,0,0,.21-3.57,6.21,6.21,0,0,0-1.93-2.54,21.63,21.63,0,0,0-4.94-3.75,7.47,7.47,0,0,0-6-.5"/><path class="cls-29" d="M449.69,459.35a11.56,11.56,0,0,0,2-5.44,5.92,5.92,0,0,0-2.2-5.17,6.25,6.25,0,0,0-4.06-1,9.7,9.7,0,0,0-8.5,6.94,7.29,7.29,0,0,0-11.73-.41c-2.45,3.09-2,7.5-1.39,11.39a8.44,8.44,0,0,0-7.9,13.77c1.56,1.93,1.37,1.15.46,3.27a6.45,6.45,0,0,0,0,4.79,7.74,7.74,0,0,0,3.82,4.3,5.79,5.79,0,0,0,5.63-.35,7.2,7.2,0,0,0,2.06-2.39,13.46,13.46,0,0,0,.72-11.86"/><path class="cls-27" d="M427.71,484.35v0s0-.07,0-.1Z"/><path class="cls-43" d="M457.48,464.79a2.89,2.89,0,0,0-1-1.75,3,3,0,0,0-1.6-.32l-7.22-.05c-4,0-8.14,0-11.6,1.94s-5.74,5.65-6.81,9.51a33.08,33.08,0,0,0-1.52,10.21c1,5.14,2.94,10.28,6.63,14s9.54,5.71,14.46,3.79c5.47-2.13,8.3-8.2,9.53-13.95A48.16,48.16,0,0,0,457.48,464.79Z"/><path class="cls-43" d="M432.52,480.59a6.56,6.56,0,0,0-1.37-1.86c-1.68-1.59-4.88-3-7-1.5a4.81,4.81,0,0,0-1.84,4.12c.16,2.72,3.24,3.56,5.52,3.44.61,0,5.93-1.08,5.6-2A17.21,17.21,0,0,0,432.52,480.59Z"/><path class="cls-29" d="M428.78,479.77c-1.95-3.51-2.55-7.26-1.38-9.9s4.63-5.52,7.24-6.55c.22-.09.3-.38.53-.41s.61.33.75.66c1.19,2.95-.39,6.13-1.69,9C431.78,478.08,428.78,479.77,428.78,479.77Z"/><path class="cls-29" d="M434.57,465.33A17.94,17.94,0,0,0,445.34,468a31.19,31.19,0,0,0,10.84-2.88,12.72,12.72,0,0,0,4.64-3.07,4.69,4.69,0,0,0-3.47-8.11,13.2,13.2,0,0,0-5.57,1.22c-6.09,2.42-14.63,3.22-19.62,7.47"/><path class="cls-19" d="M454.92,512.19s10.78,9.63,15.82,18.35S479.46,553,479.46,553l-18.81-.23Z"/><path class="cls-30" d="M406.75,515.17s8,2.75,13.3,13.54,2.75,25.68,1.61,30-6.43,15.37-6.43,15.37l-.68,7.34s8.94-2.47,13.3-15.37c4.91-14.54,4.13-27.29-.92-39.22s-11.7-17.66-11.7-17.66-2.06-.69-4.81,1.37A11.25,11.25,0,0,0,406.75,515.17Z"/><path class="cls-30" d="M446,505.54a14,14,0,0,1,9.46,3.61c10.56,9.34,9.92,26.67,9.92,26.67l-5,.51a63.82,63.82,0,0,0-3.9-18.06A27.76,27.76,0,0,0,446,505.54Z"/><polygon class="cls-20" points="499.62 531.51 482.84 504.68 477.17 547.51 497.98 548.2 499.62 531.51"/><path class="cls-44" d="M452.39,540.17s10.44-7.79,22.37-8.83a48,48,0,0,1,22.13,3.79,57,57,0,0,1-15.25,4.81c-8.26,1.27-27.41,3.56-27.41,3.56Z"/><polygon class="cls-20" points="452.39 540.17 452.62 587.2 493.45 581.46 494.6 535.36 452.39 540.17"/><polygon class="cls-45" points="499.46 533.12 499.62 531.51 482.84 504.68 482.66 506.03 499.46 533.12"/><path class="cls-25" d="M494.6,535.36a4.55,4.55,0,0,0,3.21-.83,5.81,5.81,0,0,0,1.8-3l-1.54,46a3.42,3.42,0,0,1-1.55,3.36,4.92,4.92,0,0,1-3.07.57Z"/><path class="cls-43" d="M447.19,562.49a68.72,68.72,0,0,1,5.56-9.77c.3-.44.74-.93,1.25-.81s.69.79.73,1.33a32.15,32.15,0,0,1-.16,7.07.61.61,0,0,0,.62.87c3.91.32,7.8-.86,11.72-.79a3.28,3.28,0,0,1,1.61.32,2.83,2.83,0,0,1,1,1.14,5.84,5.84,0,0,1-1,6.66,10.86,10.86,0,0,1-4,2.22,128.18,128.18,0,0,1-14.73,4.6,1.54,1.54,0,0,1-1.12,0,1.51,1.51,0,0,1-.55-1,34.78,34.78,0,0,1-.86-12.15"/><path class="cls-46" d="M404.22,520.91s4.59-4.59,10.56,5.73.45,40.6,3.67,43.58,28.67-9.17,28.67-9.17a57.33,57.33,0,0,1,3.67,9.86c1.37,5.28.91,6.19.91,6.19s-25.23,20-41.28,12.85-13.76-42.64-12.85-51.15C399,526,404.22,520.91,404.22,520.91Z"/><path class="cls-47" d="M792.26,762s-.47,8.71-1.18,9.41-20.93,7.06-20.7,9.88,4,3.76,12.94,3.53,20.93-.94,22.34-3.3,1.41-18.58,1.41-18.58Z"/><path class="cls-47" d="M883,735.38s7.53,6.58,7.29,8-5.41,22.35-3.29,22.82,21.4-27.05,22.11-29.64S895,724.32,895,724.32Z"/><path class="cls-28" d="M791.08,614.25s-5.82,58.62-5.82,68.5,4.41,83,4.41,83l19.76.94s4.05-74,5-83.91,7.71-61,7.71-61Z"/><path class="cls-40" d="M811.31,610s-1.88,58.33,1.88,64.44,67.73,65.86,67.73,65.86l16.94-15.53s-49.39-47.51-52.22-61.15-.94-50.33-.94-50.33Z"/><path class="cls-48" d="M799.78,516.18s-7.76,9.64-11,18.11-6.35,21.64-6.35,21.64l16,1.64s3.53-22.11,3.76-28S799.78,516.18,799.78,516.18Z"/><path class="cls-30" d="M799.78,516.18s-4.47,6.35-6.11,20-.71,60.21-.71,60.21l54.33.23s2.35-50.09-1.65-61.85-13.82-16.27-18.52-18.86a110.74,110.74,0,0,0-12.19-5.32s-4.8,7-8.33,7.71S799.78,516.18,799.78,516.18Z"/><rect class="cls-25" x="769.91" y="548.99" width="133.35" height="100.9"/><line class="cls-49" x1="768.15" y1="596.76" x2="818.23" y2="547.66"/><line class="cls-49" x1="905.74" y1="596.76" x2="855.65" y2="547.66"/><path class="cls-27" d="M788.42,469.42a48.7,48.7,0,0,0-5,18,28.57,28.57,0,0,0,1.91,13.78c1.91,4.27,5.55,7.94,10.1,9.07a9.4,9.4,0,0,0,4.25.14,11.06,11.06,0,0,0,3.45-1.51,20.72,20.72,0,0,0,9.4-14.68c.61-4.82-.5-9.67-1.61-14.4-.5-2.13-1.05-4.37-2.52-6-2.07-2.3-5.42-2.83-8.49-3.22l-11.67-1.48"/><path class="cls-27" d="M798.39,507.08a30.61,30.61,0,0,1,0,14.18c-.14.58-.25,1.29.22,1.66a1.25,1.25,0,0,0,.8.22,7,7,0,0,0,3-.93,52.55,52.55,0,0,0,11.47-7.83,4,4,0,0,0,1.4-1.91,4.26,4.26,0,0,0,0-1.63q-1.2-8.11-2.41-16.24a.91.91,0,0,0-.36-.72c-.32-.18-.7.09-1,.34l-8.59,7.91a20.62,20.62,0,0,0-4.86,5.73"/><path class="cls-27" d="M835.88,619.55a61.88,61.88,0,0,0-4.5,7.82,12.85,12.85,0,0,0-1.29,3.72,5.05,5.05,0,0,0,.84,3.77,5,5,0,0,0,5.45,1.3,10.4,10.4,0,0,0,4.6-3.69,24.21,24.21,0,0,0,4.47-9.51,2.78,2.78,0,0,0,0-1.64c-.38-.89-1.5-1.15-2.46-1.28q-3.46-.49-7-.8"/><path class="cls-29" d="M820.35,483.77a1.65,1.65,0,0,1,.45-1.14c2.24-3,3.65-7.39,1.49-10.49a7.07,7.07,0,0,0-5.58-2.77,12.36,12.36,0,0,0-6.16,1.67,7.35,7.35,0,0,0-4.77-9.61c-3.45-.86-8.49,1.73-9.91,5.11a6.13,6.13,0,0,0-5.36-2.82,7.72,7.72,0,0,0-6.1,3.76,4.4,4.4,0,0,0-.77,2.33,3.92,3.92,0,0,0,2.23,3.24,10.59,10.59,0,0,0,4,1,79.73,79.73,0,0,0,15.37.06,13.32,13.32,0,0,0,6.1,16.05c-.08,2.58.16,5.47,2.08,7.19a5.64,5.64,0,0,0,6.76.19,7.62,7.62,0,0,0,3-6.32,12,12,0,0,0-2.47-6.73A1.56,1.56,0,0,1,820.35,483.77Z"/><path class="cls-27" d="M815.08,485.4a5.19,5.19,0,0,0-4.45.21A38.06,38.06,0,0,0,807,488l-.07.55c.16,1.4.41,2.95,1.51,3.84,2.36,1.89,6-.28,7.5-2.31C817.22,488.32,817.06,486.38,815.08,485.4Z"/><path class="cls-48" d="M816.48,521.82c-1.41,7.41,10.23,13.41,17.64,27.52s10.23,21.52,8.47,35.63-9.88,35.63-9.88,35.63l15.17,5.3s14.82-38.46,15.52-56.1-8.27-30.5-16.93-40.57C833.41,514.06,817.89,514.41,816.48,521.82Z"/></g></g></g></svg>