<svg xmlns="http://www.w3.org/2000/svg" viewBox="0 0 86 84.15"><defs><style>.cls-1{fill:#133b4f;}</style></defs><title>Plan de Estudios</title><g id="Layer_2" data-name="Layer 2"><g id="Layer_1-2" data-name="Layer 1"><path class="cls-1" d="M25.6,5.88H9.34A2.45,2.45,0,0,0,6.89,8.33V18a2.45,2.45,0,0,0,2.45,2.45H25.6A2.45,2.45,0,0,0,28.05,18V8.33A2.45,2.45,0,0,0,25.6,5.88ZM25.53,17.8h-16V8.4h16Z"/><path class="cls-1" d="M8.2,22.68a1.27,1.27,0,0,0-1.29,1.41A1.32,1.32,0,0,0,8.22,25.2H26.73A1.31,1.31,0,0,0,28,24.09a1.27,1.27,0,0,0-1.29-1.41Z"/><path class="cls-1" d="M51.13,5.88H34.87a2.45,2.45,0,0,0-2.45,2.45V18a2.45,2.45,0,0,0,2.45,2.45H51.13A2.45,2.45,0,0,0,53.58,18V8.33A2.45,2.45,0,0,0,51.13,5.88ZM51.06,17.8h-16V8.4h16Z"/><path class="cls-1" d="M52.29,22.68H33.77a1.29,1.29,0,0,0-1.31,1.1,1.27,1.27,0,0,0,1.28,1.42H52.27a1.31,1.31,0,0,0,1.31-1.11A1.27,1.27,0,0,0,52.29,22.68Z"/><path class="cls-1" d="M60.4,20.49H76.66A2.45,2.45,0,0,0,79.11,18V8.33a2.45,2.45,0,0,0-2.45-2.45H60.4A2.45,2.45,0,0,0,58,8.33V18A2.45,2.45,0,0,0,60.4,20.49ZM60.64,8.4h16v9.4h-16Z"/><path class="cls-1" d="M59.28,25.2H77.81a1.31,1.31,0,0,0,1.31-1.11,1.27,1.27,0,0,0-1.29-1.41H59.31A1.29,1.29,0,0,0,58,23.78,1.28,1.28,0,0,0,59.28,25.2Z"/><path class="cls-1" d="M51.13,27H34.87a2.46,2.46,0,0,0-2.45,2.46v9.7a2.46,2.46,0,0,0,2.45,2.46H51.13a2.46,2.46,0,0,0,2.45-2.46V29.5A2.46,2.46,0,0,0,51.13,27ZM51.06,39h-16V29.56h16Z"/><path class="cls-1" d="M33.74,43.84a1.26,1.26,0,0,0-1.28,1.41,1.29,1.29,0,0,0,1.31,1.11h18.5a1.3,1.3,0,0,0,1.31-1.11,1.28,1.28,0,0,0-1.29-1.41Z"/><path class="cls-1" d="M60.4,41.66H76.66a2.46,2.46,0,0,0,2.45-2.46V29.5A2.46,2.46,0,0,0,76.66,27H60.4A2.46,2.46,0,0,0,58,29.5v9.7A2.46,2.46,0,0,0,60.4,41.66Zm.24-12.1h16V39h-16Z"/><path class="cls-1" d="M59.28,46.36H77.81a1.3,1.3,0,0,0,1.31-1.11,1.28,1.28,0,0,0-1.29-1.41H59.31A1.29,1.29,0,0,0,58,45,1.27,1.27,0,0,0,59.28,46.36Z"/><path class="cls-1" d="M8.79,34.94H20.65A1.3,1.3,0,0,0,22,33.71a1.26,1.26,0,0,0-1.26-1.29H8.85a1.3,1.3,0,0,0-1.32,1.23A1.26,1.26,0,0,0,8.79,34.94Z"/><path class="cls-1" d="M8.72,41h7A1.3,1.3,0,0,0,17,39.76a1.26,1.26,0,0,0-1.26-1.3h-7a1.31,1.31,0,0,0-1.32,1.23A1.27,1.27,0,0,0,8.72,41Z"/><path class="cls-1" d="M27.11,39.17a1.31,1.31,0,0,0-1.82.24l-4.71,6.16-2.86-2.43a1.29,1.29,0,0,0-1.68,2l3.9,3.32a1.29,1.29,0,0,0,1.86-.2L27.35,41A1.31,1.31,0,0,0,27.11,39.17Z"/><path class="cls-1" d="M8.79,54.59H20.65A1.3,1.3,0,0,0,22,53.36a1.26,1.26,0,0,0-1.26-1.29H8.85A1.3,1.3,0,0,0,7.53,53.3,1.26,1.26,0,0,0,8.79,54.59Z"/><path class="cls-1" d="M15.72,58.12H8.78a1.3,1.3,0,0,0-1.32,1.22,1.28,1.28,0,0,0,1.26,1.3h7.06A1.26,1.26,0,0,0,17,59.34,1.3,1.3,0,0,0,15.72,58.12Z"/><path class="cls-1" d="M27.11,58.73a1.3,1.3,0,0,0-1.82.24l-4.71,6.16-2.86-2.44a1.29,1.29,0,0,0-1.68,2L19.94,68a1.29,1.29,0,0,0,1.86-.2l5.55-7.24A1.3,1.3,0,0,0,27.11,58.73Z"/><path class="cls-1" d="M1.31,34.82a1.18,1.18,0,0,0,1.21-1.29V4.45a2.14,2.14,0,0,1,1.9-1.93H48a1.15,1.15,0,0,0,1.3-1.18A1.37,1.37,0,0,0,48,0H4.42A4.51,4.51,0,0,0,0,4.45V33.53A1.32,1.32,0,0,0,1.31,34.82Z"/><path class="cls-1" d="M84.67,0h-32a.39.39,0,0,0-.27.1,1.33,1.33,0,0,0,.74,2.42H81.67a1.81,1.81,0,0,1,1.81,1.81V49.21H31.41V30.11A3.08,3.08,0,0,0,28.34,27H6.6a3.07,3.07,0,0,0-3.07,3.07v19.1h-1V38.68a1.3,1.3,0,0,0-1.11-1.31A1.26,1.26,0,0,0,0,38.65V58.2a4.46,4.46,0,0,0,3.53,4.36v8.1A3.07,3.07,0,0,0,6.6,73.74H28.34a3.08,3.08,0,0,0,3.07-3.08v-8h3.85L32.79,74.91H27.84a3.34,3.34,0,0,0-3.32,3.32v2.6a3.33,3.33,0,0,0,3.32,3.32H58.33a3.32,3.32,0,0,0,3.31-3.32v-2.6a3.33,3.33,0,0,0-3.31-3.32h-5L50.89,62.65H81.6a4.4,4.4,0,0,0,4.4-4.4V1.33A1.32,1.32,0,0,0,84.67,0ZM3.53,59.84a1.84,1.84,0,0,1-.84-1.56V51.9h.84ZM28.89,70.72a.49.49,0,0,1-.49.5H6.54a.49.49,0,0,1-.49-.5V30.06a.5.5,0,0,1,.49-.5H28.4a.5.5,0,0,1,.49.5ZM59,78.17v2.56a.73.73,0,0,1-.74.73H27.78a.73.73,0,0,1-.74-.73V78.17a.74.74,0,0,1,.74-.74H58.22A.74.74,0,0,1,59,78.17Zm-23.5-3.26,2.47-12.26H48.11l2.46,12.26Zm46-14.78H31.41V51.9h51.9v6.42A1.81,1.81,0,0,1,81.5,60.13Z"/><path class="cls-1" d="M77.1,59.33A3.38,3.38,0,1,0,73.71,56,3.39,3.39,0,0,0,77.1,59.33Zm0-4.18a.8.8,0,1,1-.8.8A.8.8,0,0,1,77.1,55.15Z"/><path class="cls-1" d="M68.22,59.33A3.38,3.38,0,1,0,64.84,56,3.39,3.39,0,0,0,68.22,59.33Zm0-4.18a.8.8,0,1,1-.8.8A.8.8,0,0,1,68.22,55.15Z"/></g></g></svg>